<?xml version="1.0" encoding="UTF-8"?>
<svg xmlns="http://www.w3.org/2000/svg" width="288" height="24" viewBox="0 0 288 24" fill="none">
<g transform="translate(0 0)">
<path d="M7 10c0-3 2.5-5.5 5-6 2.5.5 5 3 5 6v4l2 2H5l2-2v-4z" stroke="#9ba3b8" stroke-width="1.6" stroke-linecap="round" stroke-linejoin="round" />
<circle cx="12" cy="20" r="1.4" fill="#7c5cff" />
</g>
<g transform="translate(24 0)">
<path d="M7 9c0-3 2.5-5.5 5-6 2.5.5 5 3 5 6v4l2 2H5l2-2v-4z" stroke="#9ba3b8" stroke-width="1.6" stroke-linecap="round" stroke-linejoin="round" />
<circle cx="12" cy="19" r="1.4" fill="#7c5cff" />
</g>
<g transform="translate(48 0)">
<path d="M7 8c0-3 2.5-5.5 5-6 2.5.5 5 3 5 6v4l2 2H5l2-2v-4z" stroke="#9ba3b8" stroke-width="1.6" stroke-linecap="round" stroke-linejoin="round" />
<circle cx="12" cy="18" r="1.4" fill="#7c5cff" />
</g>
<g transform="translate(72 0)">
<path d="M7 7c0-3 2.5-5.5 5-6 2.5.5 5 3 5 6v4l2 2H5l2-2v-4z" stroke="#9ba3b8" stroke-width="1.6" stroke-linecap="round" stroke-linejoin="round" />
<circle cx="12" cy="17" r="1.4" fill="#7c5cff" />
</g>
<g transform="translate(96 0)">
<path d="M7 8c0-3 2.5-5.5 5-6 2.5.5 5 3 5 6v4l2 2H5l2-2v-4z" stroke="#9ba3b8" stroke-width="1.6" stroke-linecap="round" stroke-linejoin="round" />
<circle cx="12" cy="18" r="1.4" fill="#7c5cff" />
</g>
<g transform="translate(120 0)">
<path d="M7 9c0-3 2.5-5.5 5-6 2.5.5 5 3 5 6v4l2 2H5l2-2v-4z" stroke="#9ba3b8" stroke-width="1.6" stroke-linecap="round" stroke-linejoin="round" />
<circle cx="12" cy="19" r="1.4" fill="#7c5cff" />
</g>
<g transform="translate(144 0)">
<path d="M7 10c0-3 2.5-5.5 5-6 2.5.5 5 3 5 6v4l2 2H5l2-2v-4z" stroke="#9ba3b8" stroke-width="1.6" stroke-linecap="round" stroke-linejoin="round" />
<circle cx="12" cy="20" r="1.4" fill="#7c5cff" />
</g>
<g transform="translate(168 0)">
<path d="M7 11c0-3 2.5-5.5 5-6 2.5.5 5 3 5 6v4l2 2H5l2-2v-4z" stroke="#9ba3b8" stroke-width="1.6" stroke-linecap="round" stroke-linejoin="round" />
<circle cx="12" cy="21" r="1.4" fill="#7c5cff" />
</g>
<g transform="translate(192 0)">
<path d="M7 10c0-3 2.5-5.5 5-6 2.5.5 5 3 5 6v4l2 2H5l2-2v-4z" stroke="#9ba3b8" stroke-width="1.6" stroke-linecap="round" stroke-linejoin="round" />
<circle cx="12" cy="20" r="1.4" fill="#7c5cff" />
</g>
<g transform="translate(216 0)">
<path d="M7 9c0-3 2.5-5.5 5-6 2.5.5 5 3 5 6v4l2 2H5l2-2v-4z" stroke="#9ba3b8" stroke-width="1.6" stroke-linecap="round" stroke-linejoin="round" />
<circle cx="12" cy="19" r="1.4" fill="#7c5cff" />
</g>
<g transform="translate(240 0)">
<path d="M7 10c0-3 2.5-5.5 5-6 2.5.5 5 3 5 6v4l2 2H5l2-2v-4z" stroke="#9ba3b8" stroke-width="1.6" stroke-linecap="round" stroke-linejoin="round" />
<circle cx="12" cy="20" r="1.4" fill="#7c5cff" />
</g>
<g transform="translate(264 0)">
<path d="M7 10c0-3 2.5-5.5 5-6 2.5.5 5 3 5 6v4l2 2H5l2-2v-4z" stroke="#9ba3b8" stroke-width="1.6" stroke-linecap="round" stroke-linejoin="round" />
<circle cx="12" cy="20" r="1.4" fill="#7c5cff" />
</g>
</svg>