<?xml version="1.0" encoding="UTF-8"?>
<svg xmlns="http://www.w3.org/2000/svg" width="288" height="24" viewBox="0 0 288 24" fill="none">
<g transform="translate(0 0)">
<circle cx="12" cy="12" r="8" stroke="#9ba3b8" stroke-width="1.6" opacity="0.3" />
<g transform="translate(12 12) scale(0.6) translate(-12 -12)"><path d="M8 12.5l2.2 2.3L16 9.5" stroke="#7c5cff" stroke-width="2" stroke-linecap="round" stroke-linejoin="round" /></g>
</g>
<g transform="translate(24 0)">
<circle cx="12" cy="12" r="8" stroke="#9ba3b8" stroke-width="1.6" opacity="0.3" />
<g transform="translate(12 12) scale(0.7) translate(-12 -12)"><path d="M8 12.5l2.2 2.3L16 9.5" stroke="#7c5cff" stroke-width="2" stroke-linecap="round" stroke-linejoin="round" /></g>
</g>
<g transform="translate(48 0)">
<circle cx="12" cy="12" r="8" stroke="#9ba3b8" stroke-width="1.6" opacity="0.3" />
<g transform="translate(12 12) scale(0.8) translate(-12 -12)"><path d="M8 12.5l2.2 2.3L16 9.5" stroke="#7c5cff" stroke-width="2" stroke-linecap="round" stroke-linejoin="round" /></g>
</g>
<g transform="translate(72 0)">
<circle cx="12" cy="12" r="8" stroke="#9ba3b8" stroke-width="1.6" opacity="0.3" />
<g transform="translate(12 12) scale(0.9) translate(-12 -12)"><path d="M8 12.5l2.2 2.3L16 9.5" stroke="#7c5cff" stroke-width="2" stroke-linecap="round" stroke-linejoin="round" /></g>
</g>
<g transform="translate(96 0)">
<circle cx="12" cy="12" r="8" stroke="#9ba3b8" stroke-width="1.6" opacity="0.3" />
<g transform="translate(12 12) scale(1.0) translate(-12 -12)"><path d="M8 12.5l2.2 2.3L16 9.5" stroke="#7c5cff" stroke-width="2" stroke-linecap="round" stroke-linejoin="round" /></g>
</g>
<g transform="translate(120 0)">
<circle cx="12" cy="12" r="8" stroke="#9ba3b8" stroke-width="1.6" opacity="0.3" />
<g transform="translate(12 12) scale(1.05) translate(-12 -12)"><path d="M8 12.5l2.2 2.3L16 9.5" stroke="#7c5cff" stroke-width="2" stroke-linecap="round" stroke-linejoin="round" /></g>
</g>
<g transform="translate(144 0)">
<circle cx="12" cy="12" r="8" stroke="#9ba3b8" stroke-width="1.6" opacity="0.3" />
<g transform="translate(12 12) scale(1.1) translate(-12 -12)"><path d="M8 12.5l2.2 2.3L16 9.5" stroke="#7c5cff" stroke-width="2" stroke-linecap="round" stroke-linejoin="round" /></g>
</g>
<g transform="translate(168 0)">
<circle cx="12" cy="12" r="8" stroke="#9ba3b8" stroke-width="1.6" opacity="0.3" />
<g transform="translate(12 12) scale(1.05) translate(-12 -12)"><path d="M8 12.5l2.2 2.3L16 9.5" stroke="#7c5cff" stroke-width="2" stroke-linecap="round" stroke-linejoin="round" /></g>
</g>
<g transform="translate(192 0)">
<circle cx="12" cy="12" r="8" stroke="#9ba3b8" stroke-width="1.6" opacity="0.3" />
<g transform="translate(12 12) scale(1.0) translate(-12 -12)"><path d="M8 12.5l2.2 2.3L16 9.5" stroke="#7c5cff" stroke-width="2" stroke-linecap="round" stroke-linejoin="round" /></g>
</g>
<g transform="translate(216 0)">
<circle cx="12" cy="12" r="8" stroke="#9ba3b8" stroke-width="1.6" opacity="0.3" />
<g transform="translate(12 12) scale(0.95) translate(-12 -12)"><path d="M8 12.5l2.2 2.3L16 9.5" stroke="#7c5cff" stroke-width="2" stroke-linecap="round" stroke-linejoin="round" /></g>
</g>
<g transform="translate(240 0)">
<circle cx="12" cy="12" r="8" stroke="#9ba3b8" stroke-width="1.6" opacity="0.3" />
<g transform="translate(12 12) scale(0.9) translate(-12 -12)"><path d="M8 12.5l2.2 2.3L16 9.5" stroke="#7c5cff" stroke-width="2" stroke-linecap="round" stroke-linejoin="round" /></g>
</g>
<g transform="translate(264 0)">
<circle cx="12" cy="12" r="8" stroke="#9ba3b8" stroke-width="1.6" opacity="0.3" />
<g transform="translate(12 12) scale(0.85) translate(-12 -12)"><path d="M8 12.5l2.2 2.3L16 9.5" stroke="#7c5cff" stroke-width="2" stroke-linecap="round" stroke-linejoin="round" /></g>
</g>
</svg>