<?xml version="1.0" encoding="UTF-8"?>
<svg xmlns="http://www.w3.org/2000/svg" width="288" height="24" viewBox="0 0 288 24" fill="none">
<g transform="translate(0 0)">
<circle cx="12" cy="12" r="8" stroke="#9ba3b8" stroke-width="2" opacity="0.35" />
<line x1="12" y1="3.5" x2="12" y2="7" stroke="#7c5cff" stroke-width="2" stroke-linecap="round" transform="rotate(0 12 12)" />
</g>
<g transform="translate(24 0)">
<circle cx="12" cy="12" r="8" stroke="#9ba3b8" stroke-width="2" opacity="0.35" />
<line x1="12" y1="3.5" x2="12" y2="7" stroke="#7c5cff" stroke-width="2" stroke-linecap="round" transform="rotate(30 12 12)" />
</g>
<g transform="translate(48 0)">
<circle cx="12" cy="12" r="8" stroke="#9ba3b8" stroke-width="2" opacity="0.35" />
<line x1="12" y1="3.5" x2="12" y2="7" stroke="#7c5cff" stroke-width="2" stroke-linecap="round" transform="rotate(60 12 12)" />
</g>
<g transform="translate(72 0)">
<circle cx="12" cy="12" r="8" stroke="#9ba3b8" stroke-width="2" opacity="0.35" />
<line x1="12" y1="3.5" x2="12" y2="7" stroke="#7c5cff" stroke-width="2" stroke-linecap="round" transform="rotate(90 12 12)" />
</g>
<g transform="translate(96 0)">
<circle cx="12" cy="12" r="8" stroke="#9ba3b8" stroke-width="2" opacity="0.35" />
<line x1="12" y1="3.5" x2="12" y2="7" stroke="#7c5cff" stroke-width="2" stroke-linecap="round" transform="rotate(120 12 12)" />
</g>
<g transform="translate(120 0)">
<circle cx="12" cy="12" r="8" stroke="#9ba3b8" stroke-width="2" opacity="0.35" />
<line x1="12" y1="3.5" x2="12" y2="7" stroke="#7c5cff" stroke-width="2" stroke-linecap="round" transform="rotate(150 12 12)" />
</g>
<g transform="translate(144 0)">
<circle cx="12" cy="12" r="8" stroke="#9ba3b8" stroke-width="2" opacity="0.35" />
<line x1="12" y1="3.5" x2="12" y2="7" stroke="#7c5cff" stroke-width="2" stroke-linecap="round" transform="rotate(180 12 12)" />
</g>
<g transform="translate(168 0)">
<circle cx="12" cy="12" r="8" stroke="#9ba3b8" stroke-width="2" opacity="0.35" />
<line x1="12" y1="3.5" x2="12" y2="7" stroke="#7c5cff" stroke-width="2" stroke-linecap="round" transform="rotate(210 12 12)" />
</g>
<g transform="translate(192 0)">
<circle cx="12" cy="12" r="8" stroke="#9ba3b8" stroke-width="2" opacity="0.35" />
<line x1="12" y1="3.5" x2="12" y2="7" stroke="#7c5cff" stroke-width="2" stroke-linecap="round" transform="rotate(240 12 12)" />
</g>
<g transform="translate(216 0)">
<circle cx="12" cy="12" r="8" stroke="#9ba3b8" stroke-width="2" opacity="0.35" />
<line x1="12" y1="3.5" x2="12" y2="7" stroke="#7c5cff" stroke-width="2" stroke-linecap="round" transform="rotate(270 12 12)" />
</g>
<g transform="translate(240 0)">
<circle cx="12" cy="12" r="8" stroke="#9ba3b8" stroke-width="2" opacity="0.35" />
<line x1="12" y1="3.5" x2="12" y2="7" stroke="#7c5cff" stroke-width="2" stroke-linecap="round" transform="rotate(300 12 12)" />
</g>
<g transform="translate(264 0)">
<circle cx="12" cy="12" r="8" stroke="#9ba3b8" stroke-width="2" opacity="0.35" />
<line x1="12" y1="3.5" x2="12" y2="7" stroke="#7c5cff" stroke-width="2" stroke-linecap="round" transform="rotate(330 12 12)" />
</g>
</svg>